HIERARCHY
ROOT Hips
{
	OFFSET -0.179506 -22.333345 2.821913
	CHANNELS 6 Xposition Yposition Zposition Zrotation Yrotation Xrotation 
	JOINT LeftUpLeg
	{
		OFFSET 6.951974 -9.140623 -0.681533
		CHANNELS 3 Zrotation Yrotation Xrotation
		JOINT LeftLeg
		{
			OFFSET 3.427654 -37.519855 -0.449580
			CHANNELS 3 Zrotation Yrotation Xrotation
			JOINT LeftFoot
			{
				OFFSET -1.359570 -39.796059 -4.369333
				CHANNELS 3 Zrotation Yrotation Xrotation
				JOINT LeftToe
				{
					OFFSET 2.635814 -5.579078 11.928840
					CHANNELS 3 Zrotation Yrotation Xrotation
					End Site
					{
						OFFSET 0.000000 0.000000 0.000000
					}
				}
			}
		}
	}
	JOINT RightUpLeg
	{
		OFFSET -6.767048 -9.052170 -0.431982
		CHANNELS 3 Zrotation Yrotation Xrotation
		JOINT RightLeg
		{
			OFFSET -3.829005 -38.256897 -0.885003
			CHANNELS 3 Zrotation Yrotation Xrotation
			JOINT RightFoot
			{
				OFFSET 1.577377 -39.841461 -4.231180
				CHANNELS 3 Zrotation Yrotation Xrotation
				JOINT RightToe
				{
					OFFSET -2.537174 -4.814398 12.334795
					CHANNELS 3 Zrotation Yrotation Xrotation
					End Site
					{
						OFFSET 0.000000 0.000000 0.000000
					}
				}
			}
		}
	}
	JOINT Spine
	{
		OFFSET -0.253288 10.896323 -2.669631
		CHANNELS 3 Zrotation Yrotation Xrotation
		JOINT Spine1
		{
			OFFSET 0.548704 13.518043 0.109247
			CHANNELS 3 Zrotation Yrotation Xrotation
			JOINT Spine2
			{
				OFFSET 0.145701 5.292222 2.542457
				CHANNELS 3 Zrotation Yrotation Xrotation
				JOINT Neck
				{
					OFFSET -0.277840 21.387037 -4.285703
					CHANNELS 3 Zrotation Yrotation Xrotation
					JOINT Head
					{
						OFFSET 0.515184 6.496960 5.134897
						CHANNELS 3 Zrotation Yrotation Xrotation
						End Site
						{
							OFFSET 0.000000 0.000000 0.000000
						}
					}
				}
				JOINT LeftShoulder
				{
					OFFSET 7.884473 12.174932 -3.408961
					CHANNELS 3 Zrotation Yrotation Xrotation
					JOINT LeftArm
					{
						OFFSET 9.097692 3.046888 -0.886815
						CHANNELS 3 Zrotation Yrotation Xrotation
						JOINT LeftForeArm
						{
							OFFSET 25.961220 -1.277207 -2.745643
							CHANNELS 3 Zrotation Yrotation Xrotation
							JOINT LeftHand
							{
								OFFSET 24.923361 0.898606 -0.117091
								CHANNELS 3 Zrotation Yrotation Xrotation
								End Site
								{
									OFFSET 0.000000 0.000000 0.000000
								}
							}
						}
					}
				}
				JOINT RightShoulder
				{
					OFFSET -8.175920 11.883285 -3.861528
					CHANNELS 3 Zrotation Yrotation Xrotation
					JOINT RightArm
					{
						OFFSET -9.601238 3.255117 -0.914307
						CHANNELS 3 Zrotation Yrotation Xrotation
						JOINT RightForeArm
						{
							OFFSET -25.374195 -1.332924 -2.140099
							CHANNELS 3 Zrotation Yrotation Xrotation
							JOINT RightHand
							{
								OFFSET -25.529810 0.777228 -0.555919
								CHANNELS 3 Zrotation Yrotation Xrotation
								End Site
								{
									OFFSET 0.000000 0.000000 0.000000
								}
							}
						}
					}
				}
			}
		}
	}
}
MOTION
Frames: 9
Frame Time: 0.033333
-8.825598 -30.998878 68.347069 -44.654046 0.590083 86.257454 9.926052 0.579123 -52.721849 -10.246207 12.761482 95.749271 7.052254 0.365302 -41.558704 nan nan nan 0.823197 6.356498 -34.946537 2.263592 -7.414962 93.934911 3.259652 1.721995 -46.778005 nan nan nan -0.917280 5.663946 54.500195 2.343389 -4.768210 -7.188150 3.046472 -1.282909 0.136769 -2.729298 6.390975 -14.228924 4.997648 -6.027601 -18.783124 -4.183305 -44.612367 -13.489216 -16.702751 -31.550137 -0.604420 17.901328 -44.040151 2.988721 25.089315 -13.175676 22.852165 2.991895 39.734280 -12.921311 20.753296 34.961721 -1.447449 -26.488069 61.026878 -2.220508 -14.991862 8.970111 9.082421 
-9.827420 -32.061188 68.829628 -44.349102 0.339975 86.983652 9.622268 0.189612 -51.388527 -10.509882 12.693904 94.691400 7.484509 0.482007 -42.503422 nan nan nan 0.744164 6.243115 -34.204043 2.187998 -7.354541 93.345942 3.921585 1.672571 -46.084266 nan nan nan -1.011851 5.640140 53.987472 2.247807 -4.775388 -7.551127 2.982115 -1.211158 0.191706 -2.682265 6.109177 -14.244990 5.070205 -6.157568 -18.919645 -3.592673 -44.578606 -13.940958 -16.443140 -32.145499 -0.971011 18.870749 -45.095352 2.976937 25.071218 -13.693128 22.918373 2.607533 39.570178 -13.078526 20.798843 34.762979 -1.798363 -29.045322 61.403595 -4.313873 -14.977714 9.243017 9.786344 
-10.837625 -33.178902 69.340820 -44.094498 0.063189 87.790089 9.213942 -0.203443 -50.006288 -10.960200 12.576039 93.491542 7.894112 0.732751 -43.508442 nan nan nan 0.555256 6.261921 -33.646675 1.931793 -7.284377 92.821115 4.843862 1.782743 -44.937857 nan nan nan -1.056685 5.605491 53.482219 2.048059 -4.708537 -8.421163 2.871728 -1.172556 0.552742 -2.544894 5.871112 -13.875517 5.217350 -6.343628 -19.479500 -3.522378 -44.456444 -14.132560 -15.954122 -33.015038 -1.262309 19.079724 -46.046622 3.473620 25.124689 -14.024017 22.946912 2.502933 39.166407 -12.941907 20.694480 34.610781 -2.068871 -31.819888 61.703255 -6.713993 -17.168776 9.353769 10.180213 
-11.879960 -34.292801 69.896294 -43.887244 -0.141017 88.495707 8.941012 -0.405306 -48.416557 -11.335367 12.431237 92.114205 8.114202 0.761192 -44.410114 nan nan nan 0.441171 6.549457 -33.074446 1.732672 -7.321919 92.282783 5.703776 1.850749 -43.368190 nan nan nan -1.181778 5.629259 52.732641 1.915248 -4.578259 -8.390694 2.810652 -1.018163 0.462862 -2.369268 5.669013 -13.771235 5.252709 -6.522814 -19.929183 -3.441929 -44.401303 -14.399797 -15.490373 -33.670967 -1.304190 19.629944 -47.192355 3.250214 24.408933 -14.211481 23.734266 2.254562 38.841866 -13.108904 20.569415 33.905574 -2.040786 -35.594996 62.314240 -10.635032 -17.518551 9.343432 9.433885 
-12.970630 -35.417118 70.506256 -43.630777 -0.255148 89.042346 8.673243 -0.542510 -46.614384 -11.669252 12.107392 90.685075 8.237139 0.762214 -45.166278 nan nan nan 0.431349 6.966022 -32.476919 1.497825 -7.530854 91.853444 6.748842 1.771354 -41.368100 nan nan nan -1.398376 5.692413 52.092537 1.913289 -4.431506 -8.087886 2.818451 -0.799458 0.055838 -2.093147 5.570050 -13.502537 5.283673 -6.715053 -20.282583 -3.239388 -44.470721 -14.620693 -15.232571 -34.117805 -1.215945 20.759316 -48.106294 2.631710 23.101504 -14.727852 24.831126 2.107458 38.476058 -13.378972 20.829620 32.987497 -1.722515 -39.672395 62.792308 -14.643544 -16.054418 8.636886 8.222386 
-14.075924 -36.554470 71.136604 -43.338755 -0.445869 89.468619 8.126470 -0.653739 -44.614401 -12.049143 11.525816 89.154374 8.397810 0.896090 -45.935702 nan nan nan 0.327211 7.293123 -31.955491 1.273540 -7.788724 91.623015 8.113540 1.589034 -38.991814 nan nan nan -1.700829 5.675383 51.496751 1.911513 -4.372524 -7.809029 2.765738 -0.590612 -0.239384 -1.718693 5.544129 -13.434851 5.256300 -6.939992 -20.337427 -2.941615 -44.375961 -14.830931 -14.880698 -34.498752 -1.274725 21.834054 -48.903939 2.388543 21.189741 -15.599348 26.629393 2.238332 38.150207 -13.483625 21.117506 32.154561 -1.416137 -43.368822 63.218282 -18.181258 -14.152747 8.308937 7.599226 
-15.153172 -37.723598 71.813110 -42.990029 -0.770402 89.989647 7.508066 -1.007929 -42.722865 -12.401698 11.038100 87.507139 8.729117 0.978194 -46.547791 nan nan nan -0.042556 7.588715 -31.719456 1.124201 -8.066848 91.549216 9.577850 1.462799 -36.298179 nan nan nan -2.030619 5.553144 50.933253 1.948625 -4.422458 -7.771302 2.649588 -0.576614 -0.301102 -1.339967 5.511314 -14.056751 5.061095 -7.084429 -19.907761 -2.644164 -43.903995 -15.070188 -14.309365 -35.140852 -1.540775 22.602015 -49.672073 2.307344 19.357519 -17.332291 28.153779 2.459833 37.803429 -13.539132 21.606366 31.596410 -0.670181 -47.765045 63.456496 -22.703272 -12.378188 9.003391 6.680099 
-16.263372 -38.882954 72.491844 -42.662629 -0.928240 90.456713 7.054759 -1.332831 -40.819573 -12.725495 10.488046 85.838628 8.847322 1.197059 -47.078034 nan nan nan -0.154907 7.976076 -31.627625 0.961707 -8.250236 91.576781 10.903992 1.216284 -33.170671 nan nan nan -2.324282 5.418280 50.377958 2.049707 -4.308747 -7.675069 2.578704 -0.646909 -0.356028 -1.067516 5.544609 -14.838230 5.075164 -7.255526 -19.440058 -2.538746 -43.161886 -15.600790 -13.893288 -36.211884 -1.315004 22.352581 -50.511515 2.140178 19.621314 -18.678681 26.971897 2.805936 37.107910 -13.693839 22.431678 31.142772 0.795839 -52.502685 63.654008 -28.074762 -13.137185 9.154902 4.313705 
-17.443493 -40.017204 73.138474 -42.466199 -0.864837 90.809076 6.932464 -1.466586 -38.756971 -12.878509 10.061360 84.149609 8.740778 1.571585 -47.443548 nan nan nan 0.135101 8.545813 -31.618939 0.986108 -8.352094 91.670346 11.927493 0.417010 -29.730833 nan nan nan -2.618646 5.356179 49.786292 2.223522 -4.021665 -7.539352 2.535988 -0.648749 -0.304189 -0.882934 5.665482 -15.400840 5.218213 -7.505540 -19.297337 -2.297441 -42.418854 -16.044798 -13.573227 -37.114582 -0.835645 22.058756 -51.571072 1.699692 21.384657 -19.585172 24.804210 3.195929 36.177088 -13.903035 23.473166 30.493919 2.506043 -57.170508 63.993247 -32.990653 -14.252121 9.034454 2.842563 
